<svg width="227" height="40" viewBox="0 0 227 40" fill="none" xmlns="http://www.w3.org/2000/svg">
<g clip-path="url(#clip0_785_572)">
<path d="M38.1134 23.4226L44.8348 16.7613L38.1134 10.0622L33.5688 14.5662L29.0624 10.1001L38.1134 1.13013L53.8476 16.7613L38.1516 32.3169L15.7342 10.0622L9.01279 16.7613L15.7342 23.4226L20.2024 18.9944L24.7088 23.4604L15.7342 32.3547L0 16.7613L15.6196 1.24367L38.1134 23.4226Z" fill="#333333"/>
<path d="M87.9893 20.8869C87.9893 27.9644 83.3301 31.5978 76.0741 31.5978H64.2734V2.07642H76.1886C83.3301 2.07642 87.9893 5.70982 87.9893 12.7874V20.8869ZM81.4207 12.7874C81.4207 9.45677 79.3202 7.79146 76.1886 7.79146H70.8803V25.9206H76.1123C79.3584 25.9206 81.4207 24.2175 81.4207 20.9247V12.7874Z" fill="#EE3524"/>
<path d="M109.643 24.4065C109.108 29.516 105.518 31.9761 99.9809 31.9761C94.2524 31.9761 90.3188 29.0618 90.3188 23.2711V17.9724C90.3188 12.2195 94.1378 9.26733 100.019 9.26733C105.824 9.26733 109.681 12.2195 109.681 17.9724V22.5141H96.5056V23.6874C96.5056 25.542 97.6895 26.7153 99.9809 26.7153C102.31 26.7153 103.112 25.6934 103.456 24.4065H109.643ZM96.5056 18.0859H103.533V17.556C103.533 15.4744 102.158 14.5282 100.057 14.5282C97.9186 14.5282 96.5438 15.5122 96.5438 17.556V18.0859H96.5056Z" fill="#EE3524"/>
<path d="M117.204 31.56L109.719 9.646H116.288L121.062 24.7095L124.193 14.9447H130.342L124.537 31.5978H117.204V31.56Z" fill="#EE3524"/>
<path d="M148.94 14.9446H140.653V31.5978H134.505V14.9446H130.686V9.68377H134.505V8.2077C134.505 2.18987 136.796 -1.1029 146.191 0.335324V5.33126C141.99 5.10417 140.653 5.21771 140.653 7.98061V9.68377H155.089V31.5978H148.94V14.9446Z" fill="#333333"/>
<path d="M157.838 9.68366H162.498L163.376 11.8031C164.789 10.1 166.813 9.26733 169.372 9.26733C174.031 9.26733 177.162 12.2195 177.162 17.9724V31.5598H171.014V17.556C171.014 15.4744 169.639 14.5282 167.539 14.5282C165.4 14.5282 164.025 15.5122 164.025 17.556V31.5976H157.877V9.68366H157.838Z" fill="#333333"/>
<path d="M179.683 9.68384H185.832V31.5978H179.683V9.68384Z" fill="#333333"/>
<path d="M197.441 23.9147C197.441 26.6776 198.739 26.7912 202.979 26.5641V31.56C193.584 32.9982 191.292 29.7055 191.292 23.6876V14.9448H187.894V9.68388H191.292V3.7796L197.441 1.92505V9.68388H202.979V14.9448H197.441V23.9147Z" fill="#333333"/>
<path d="M210.006 40.0001L212.908 31.56H212.144L204.659 9.646H211.266L216.078 24.7095L220.852 9.646H227L216.613 39.9622H210.006V40.0001Z" fill="#333333"/>
<path d="M38.1134 23.4226L44.8348 16.7613L38.1134 10.0622L33.5688 14.5662L29.0624 10.1001L38.1134 1.13013L53.8476 16.7613L38.1516 32.3169L15.7342 10.0622L9.01279 16.7613L15.7342 23.4226L20.2024 18.9944L24.7088 23.4604L15.7342 32.3547L0 16.7613L15.6196 1.24367L38.1134 23.4226Z" fill="#333333"/>
</g>
<defs>
<clipPath id="clip0_785_572">
<rect width="227" height="40" fill="white"/>
</clipPath>
</defs>
</svg>
